PathFileType	4	(X/Y/Z)	/Users/itak/Documents/Research/Walk-IL/dataset/trc/00048_00006.trc
DataRate	CameraRate	NumFrames	NumMarkers	Units	OrigDataRate	OrigDataStartFrame	OrigNumFrames
100.000000	100.000000	4	53	mm	100.000000	171	458
Frame#	Time	RPSI			LPSI			L3			STRN			T10			C7			CLAV			RBAK			LBAK			LSHO			LUPA			LAEL			LAOL			LWTS			LWPS			LFRA			LIFD			LHPS			LHTS			RSHO			RUPA			RAEL			RAOL			RWTS			RWPS			RFRA			RIFD			RHTS			RHPS			RBHD			LFHD			RFHD			LBHD			LHIP			RHIP			RASI			LASI			LKNE			LTHI			LANK			LTIP			LTOE			LMT1			LMT5			LHEE			RKNE			RTHI			RANK			RTIP			RTOE			RMT1			RMT5			RHEE			
		X1	Y1	Z1	X2	Y2	Z2	X3	Y3	Z3	X4	Y4	Z4	X5	Y5	Z5	X6	Y6	Z6	X7	Y7	Z7	X8	Y8	Z8	X9	Y9	Z9	X10	Y10	Z10	X11	Y11	Z11	X12	Y12	Z12	X13	Y13	Z13	X14	Y14	Z14	X15	Y15	Z15	X16	Y16	Z16	X17	Y17	Z17	X18	Y18	Z18	X19	Y19	Z19	X20	Y20	Z20	X21	Y21	Z21	X22	Y22	Z22	X23	Y23	Z23	X24	Y24	Z24	X25	Y25	Z25	X26	Y26	Z26	X27	Y27	Z27	X28	Y28	Z28	X29	Y29	Z29	X30	Y30	Z30	X31	Y31	Z31	X32	Y32	Z32	X33	Y33	Z33	X34	Y34	Z34	X35	Y35	Z35	X36	Y36	Z36	X37	Y37	Z37	X38	Y38	Z38	X39	Y39	Z39	X40	Y40	Z40	X41	Y41	Z41	X42	Y42	Z42	X43	Y43	Z43	X44	Y44	Z44	X45	Y45	Z45	X46	Y46	Z46	X47	Y47	Z47	X48	Y48	Z48	X49	Y49	Z49	X50	Y50	Z50	X51	Y51	Z51	X52	Y52	Z52	X53	Y53	Z53	

172	1.71	621.8031005859375	1017.56396484375	-138.7471313476562	600.1167602539062	1003.109252929688	-310.5030212402344	618.5779418945312	1073.6728515625	-234.3716735839844	877.7645263671875	1256.334838867188	-242.5204315185547	607.779541015625	1207.708984375	-245.5352783203125	678.8761596679688	1470.270263671875	-255.7806396484375	607.7926635742188	1338.0322265625	-177.5498657226562	853.1151123046875	1372.2138671875	-247.7535705566406	655.9509887695312	1431.234619140625	-355.6169738769531	760.418701171875	1428.369995117188	-424.8527221679688	740.7291870117188	1300.731567382812	-498.545166015625	761.9092407226562	1086.415893554688	-516.2613525390625	701.6399536132812	1070.827514648438	-430.9516906738281	876.8447875976562	862.4013671875	-441.4341430664062	819.5735473632812	841.3275756835938	-499.7953186035156	791.6949462890625	978.97412109375	-518.7802734375	904.855224609375	678.9025268554688	-411.0917053222656	860.9653930664062	765.0262451171875	-491.4665222167969	907.260498046875	782.1813354492188	-439.6207885742188	737.9935913085938	1438.08349609375	-78.84339141845703	718.5950317382812	1375.19873046875	-13.53467750549316	653.352783203125	1124.14892578125	37.06894302368164	673.8550415039062	1091.111694335938	-55.14387512207031	774.162353515625	859.8848876953125	12.50229930877686	704.0985717773438	850.370361328125	62.4598503112793	657.6229858398438	1041.4345703125	50.91531372070312	766.826904296875	675.8593139648438	-9.271793365478516	794.9208984375	757.9590454101562	14.79494762420654	737.94189453125	757.8702392578125	67.52851104736328	725.5800170898438	1650.14990234375	-314.5326843261719	895.9426879882812	1669.908935546875	-182.6902008056641	902.3442993164062	1678.419311523438	-308.3710632324219	727.4525756835938	1633.15673828125	-177.7509918212891	691.9854125976562	937.670166015625	-411.6215515136719	693.1849975585938	947.3052978515625	-64.35235595703125	814.7542724609375	963.498046875	-95.92950439453125	808.7274780273438	943.8649291992188	-362.9232482910156	750.3798828125	463.5328063964844	-362.1465148925781	728.5867919921875	610.5433959960938	-396.8308410644531	433.8402099609375	92.19196319580078	-391.5261840820312	578.3739013671875	269.85986328125	-391.3338012695312	618.3821411132812	35.1950798034668	-356.1292114257812	569.3640747070312	46.12676620483398	-311.1316528320312	527.745849609375	42.72119903564453	-415.7066650390625	380.6991271972656	122.0370330810547	-322.3651733398438	871.1140747070312	518.4763793945312	-96.34735107421875	809.5006103515625	781.1243286132812	-61.68505096435547	817.2968139648438	35.12680053710938	-110.5080032348633	867.3365478515625	389.8142700195312	-90.73839569091797	1034.045166015625	29.33097839355469	-142.5101318359375	974.79736328125	36.43910598754883	-185.7772979736328	941.3197631835938	35.99819564819336	-90.89198303222656	771.4920654296875	38.66292190551758	-168.1656036376953	
173	1.72	615.930419921875	1016.676513671875	-139.9066162109375	594.10888671875	1002.140808105469	-311.4843444824219	612.6278686523438	1072.795654296875	-235.5935821533203	871.5205688476562	1255.505981445312	-244.2145538330078	601.5634765625	1206.679443359375	-247.1353607177734	672.5010375976562	1469.368408203125	-257.2548217773438	601.4847412109375	1337.009033203125	-179.1495666503906	846.82470703125	1371.382934570312	-249.3002777099609	649.5660400390625	1430.348754882812	-357.1330871582031	754.0508422851562	1427.61181640625	-426.3902282714844	734.5496215820312	1299.898315429688	-500.0995483398438	756.3287963867188	1085.513305664062	-517.608642578125	695.8858032226562	1069.880004882812	-432.4136352539062	872.2196044921875	862.4168090820312	-441.6485595703125	815.2073364257812	840.7561645507812	-500.0394592285156	786.6478271484375	978.1865844726562	-519.6661987304688	901.2914428710938	679.2422485351562	-410.5188293457031	857.0391235351562	764.7448120117188	-491.3200073242188	903.1009521484375	782.3839721679688	-439.4080200195312	731.634765625	1436.997436523438	-80.34098052978516	712.1495971679688	1374.03857421875	-15.1782751083374	646.3425903320312	1123.206298828125	35.03080368041992	667.2083740234375	1090.07177734375	-57.12562561035156	766.4466552734375	858.6325073242188	11.39931964874268	696.1741943359375	849.3932495117188	60.99522018432617	650.3046264648438	1040.531372070312	48.92939758300781	758.7619018554688	674.5914306640625	-10.19306182861328	787.01123046875	756.6573486328125	13.96505832672119	729.7072143554688	756.7762451171875	66.34658813476562	719.0077514648438	1649.287841796875	-315.7302856445312	889.294921875	1669.155883789062	-183.8187866210938	895.7243041992188	1677.835205078125	-309.5225219726562	720.90087890625	1632.147583007812	-178.9622650146484	685.5131225585938	936.4832153320312	-412.8245544433594	687.6405639648438	946.7246704101562	-65.50550842285156	809.119873046875	962.977783203125	-97.48411560058594	802.3729858398438	942.804931640625	-364.4585876464844	740.4110717773438	462.6338500976562	-360.9948425292969	719.6541748046875	609.5013427734375	-396.7152099609375	430.4253845214844	87.35247039794922	-390.2699279785156	571.7896118164062	266.6270141601562	-390.2012329101562	616.827392578125	35.73390197753906	-355.9477233886719	567.3788452148438	44.35446548461914	-310.5529479980469	525.7887573242188	41.03493499755859	-415.2753295898438	376.38916015625	115.2485885620117	-320.8729553222656	868.0990600585938	518.79638671875	-97.27789306640625	804.8345947265625	781.0362548828125	-62.90142440795898	817.3611450195312	35.21658325195312	-110.5384216308594	865.0360717773438	390.1956481933594	-91.41475677490234	1034.111694335938	29.23304748535156	-142.5294036865234	974.8924560546875	36.41932678222656	-185.7468872070312	941.3889770507812	35.95946502685547	-90.85938262939453	771.6105346679688	38.74319458007812	-168.212158203125	
174	1.73	609.7963256835938	1015.825378417969	-141.1439514160156	587.7489624023438	1001.203918457031	-312.5578308105469	606.3652954101562	1072.018798828125	-236.8851928710938	865.1087646484375	1254.635375976562	-245.9977569580078	595.144775390625	1205.73193359375	-248.8263397216797	666.0587158203125	1468.519165039062	-258.8343200683594	595.0364379882812	1336.062866210938	-180.8559722900391	840.4207763671875	1370.522705078125	-250.9334106445312	643.1142578125	1429.517333984375	-358.7654724121094	747.6199951171875	1426.8447265625	-428.0323791503906	728.2813720703125	1299.046997070312	-501.7487182617188	750.6507568359375	1084.591674804688	-519.0606689453125	689.980224609375	1068.914428710938	-434.0001831054688	867.4287109375	862.3970947265625	-441.9134521484375	810.7064208984375	840.1671752929688	-500.3553161621094	781.488525390625	977.380126953125	-520.6402587890625	897.5949096679688	679.5885009765625	-410.0101318359375	852.9710083007812	764.452880859375	-491.2286987304688	898.78369140625	782.5750732421875	-439.2421569824219	725.1752319335938	1435.904174804688	-81.93309020996094	705.5743408203125	1372.858764648438	-16.93452072143555	639.2144775390625	1122.229614257812	32.88719940185547	660.4651489257812	1088.98193359375	-59.20486831665039	758.696044921875	857.3818359375	10.24738883972168	688.192626953125	848.402099609375	59.46567916870117	642.89404296875	1039.595825195312	46.84899139404297	750.7108764648438	673.3262939453125	-11.15503597259521	779.076416015625	755.36376953125	13.08805084228516	721.4459228515625	755.680419921875	65.11093139648438	712.4150390625	1648.433227539062	-317.014892578125	882.6129150390625	1668.390014648438	-185.0120391845703	889.087158203125	1677.23193359375	-310.7374877929688	714.310546875	1631.152465820312	-180.2545166015625	678.697998046875	935.3310546875	-414.1202697753906	681.79833984375	946.1619873046875	-66.75100708007812	803.2442626953125	962.47607421875	-99.09629821777344	795.7356567382812	941.7827758789062	-366.0729370117188	730.734375	461.8307800292969	-359.8314819335938	710.8128051757812	608.5136108398438	-396.6336364746094	427.4951782226562	82.66403198242188	-388.920166015625	565.6492309570312	263.4336547851562	-388.9946594238281	615.7619018554688	36.22692108154297	-355.8751220703125	565.9423828125	42.79833221435547	-310.0424194335938	524.2734375	39.63007354736328	-414.860595703125	372.5951538085938	108.5003967285156	-319.2502746582031	864.690673828125	519.13330078125	-98.22242736816406	799.817626953125	780.9758911132812	-64.21055603027344	817.4607543945312	35.35947036743164	-110.6039352416992	862.3982543945312	390.6309814453125	-92.09294891357422	1034.224731445312	29.09448623657227	-142.5308380126953	975.0546264648438	36.40289306640625	-185.6697082519531	941.484375	35.90393447875977	-90.80957794189453	771.8117065429688	38.87611389160156	-168.3037414550781	
175	1.74	603.3995361328125	1015.054443359375	-142.4548645019531	581.0527954101562	1000.3330078125	-313.7211608886719	599.7916259765625	1071.37353515625	-238.2506866455078	858.5321655273438	1253.7470703125	-247.8665008544922	588.52099609375	1204.8984375	-250.6112976074219	659.5591430664062	1467.74853515625	-260.5188293457031	588.453857421875	1335.223876953125	-182.6719665527344	833.9097290039062	1369.656860351562	-252.6497192382812	636.6089477539062	1428.770751953125	-360.5147705078125	741.140869140625	1426.098999023438	-429.7771606445312	721.9435424804688	1298.205932617188	-503.4893493652344	744.89501953125	1083.679809570312	-520.6001586914062	683.9448852539062	1067.962524414062	-435.6969604492188	862.462890625	862.3490600585938	-442.2233581542969	806.0604248046875	839.582275390625	-500.7426147460938	776.2257690429688	976.581298828125	-521.6914672851562	893.72216796875	679.93701171875	-409.5753173828125	848.7389526367188	764.16455078125	-491.1977844238281	894.2880249023438	782.7569580078125	-439.1280212402344	718.6185913085938	1434.8310546875	-83.61876678466797	698.8707885742188	1371.68798828125	-18.80141067504883	631.9736938476562	1121.244384765625	30.63954162597656	653.6412963867188	1087.86181640625	-61.37791061401367	750.9302368164062	856.1586303710938	9.057155609130859	680.170166015625	847.4229736328125	57.88742828369141	635.3987426757812	1038.65380859375	44.67915344238281	742.6882934570312	672.0905151367188	-12.14034461975098	771.127197265625	754.104736328125	12.1728458404541	713.1744995117188	754.6103515625	63.83737945556641	705.8157958984375	1647.610107421875	-318.3808898925781	875.9110107421875	1667.633178710938	-186.2647857666016	882.4464721679688	1676.629028320312	-312.0078430175781	707.6940307617188	1630.194946289062	-181.6236877441406	671.5449829101562	934.2386474609375	-415.5010375976562	675.6486206054688	945.6527709960938	-68.08624267578125	797.1021118164062	962.0215454101562	-100.7680816650391	788.813232421875	940.819091796875	-367.759765625	721.4127807617188	461.1389770507812	-358.6867065429688	702.1060180664062	607.59326171875	-396.5914916992188	424.970947265625	78.2083740234375	-387.4599914550781	559.9465942382812	260.3384399414062	-387.7135009765625	615.048583984375	36.6340446472168	-355.8552856445312	564.929931640625	41.46770477294922	-309.5564575195312	523.0792236328125	38.49642944335938	-414.4104614257812	369.2817687988281	101.9338989257812	-317.4864501953125	860.8125610351562	519.4968872070312	-99.14413452148438	794.4113159179688	780.9678955078125	-65.58480834960938	817.6097412109375	35.55311965942383	-110.6815490722656	859.3614501953125	391.1354370117188	-92.72699737548828	1034.395141601562	28.91674423217773	-142.5067138671875	975.2970581054688	36.41486740112305	-185.5248565673828	941.621337890625	35.82324600219727	-90.72544097900391	772.105712890625	39.07558441162109	-168.4168395996094	
